<?xml version="1.0" encoding="iso-8859-1"?>
<!-- Uploaded to: SVG Repo, www.svgrepo.com, Generator: SVG Repo Mixer Tools -->
<svg version="1.1" id="Layer_1" xmlns="http://www.w3.org/2000/svg" xmlns:xlink="http://www.w3.org/1999/xlink" 
	 viewBox="0 0 512 512" xml:space="preserve">
<g>
	<polygon style="fill:#E21B1B;" points="41.311,190.928 0.029,190.928 0.029,0 190.957,0 190.957,41.282 41.311,41.282 	"/>
	
		<rect x="85.173" y="-14.639" transform="matrix(0.7071 -0.7071 0.7071 0.7071 -43.8055 105.8005)" style="fill:#E21B1B;" width="41.273" height="240.835"/>
	<polygon style="fill:#E21B1B;" points="511.971,190.928 470.689,190.928 470.689,41.282 321.043,41.282 321.043,0 511.971,0 	"/>
	
		<rect x="285.812" y="85.151" transform="matrix(0.7071 -0.7071 0.7071 0.7071 44.1788 318.2321)" style="fill:#E21B1B;" width="240.835" height="41.273"/>
	<polygon style="fill:#E21B1B;" points="190.957,512 0.029,512 0.029,321.072 41.311,321.072 41.311,470.718 190.957,470.718 	"/>
	
		<rect x="-14.597" y="385.585" transform="matrix(0.7071 -0.7071 0.7071 0.7071 -256.248 193.8062)" style="fill:#E21B1B;" width="240.835" height="41.273"/>
	<polygon style="fill:#E21B1B;" points="511.971,512 321.043,512 321.043,470.718 470.689,470.718 470.689,321.072 511.971,321.072 
			"/>
	
		<rect x="385.599" y="285.774" transform="matrix(0.7071 -0.7071 0.7071 0.7071 -168.2368 406.2227)" style="fill:#E21B1B;" width="41.273" height="240.835"/>
</g>
</svg>