<!DOCTYPE svg PUBLIC "-//W3C//DTD SVG 1.1//EN" "http://www.w3.org/Graphics/SVG/1.1/DTD/svg11.dtd">
<!-- Uploaded to: SVG Repo, www.svgrepo.com, Transformed by: SVG Repo Mixer Tools -->
<svg fill="#ffff00" height="800px" width="800px" version="1.1" id="Layer_1" xmlns="http://www.w3.org/2000/svg" xmlns:xlink="http://www.w3.org/1999/xlink" viewBox="-49.23 -49.23 590.77 590.77" xml:space="preserve" stroke="#ffff00" stroke-width="4.923080000000001">
<g id="SVGRepo_bgCarrier" stroke-width="0"/>
<g id="SVGRepo_tracerCarrier" stroke-linecap="round" stroke-linejoin="round"/>
<g id="SVGRepo_iconCarrier"> <g> <g> <path d="M139.615,174.964v142.38l112.091-71.192L139.615,174.964z M159.308,210.801l55.668,35.351l-55.668,35.356V210.801z"/> </g> </g> <g> <g> <path d="M364.813,167.892v-21.649c0-31.861-25.918-57.779-57.779-57.779H57.779C25.918,88.464,0,114.382,0,146.243v199.822 c0,31.861,25.918,57.779,57.779,57.779h249.255c31.861,0,57.779-25.918,57.779-57.779v-21.654l127.495,63.072V104.82 L364.813,167.892z M418.12,328.813l-73-36.113v53.365c0,21-17.087,38.087-38.087,38.087H57.779c-21,0-38.087-17.087-38.087-38.087 V146.243c0-21,17.087-38.087,38.087-38.087h249.255c21,0,38.087,17.087,38.087,38.087v53.361l73-36.113V328.813z M472.615,355.772 l-34.803-17.217V153.748l34.803-17.217V355.772z"/> </g> </g> </g>
</svg>